<svg version="1.1" xmlns="http://www.w3.org/2000/svg" viewBox="0 0 458.08009338378906 439.1999969482422" width="458.08009338378906" height="439.1999969482422">
  <!-- svg-source:excalidraw -->
  
  <defs>
    <style class="style-fonts">
      @font-face {
        font-family: "Virgil";
        src: url("https://excalidraw.com/Virgil.woff2");
      }
      @font-face {
        font-family: "Cascadia";
        src: url("https://excalidraw.com/Cascadia.woff2");
      }
      @font-face {
        font-family: "Assistant";
        src: url("https://excalidraw.com/Assistant-Regular.woff2");
      }
    </style>
    
  </defs>
  <rect x="0" y="0" width="458.08009338378906" height="439.1999969482422" fill="#ffffff"></rect><g stroke-linecap="round" transform="translate(10 42.799957275390625) rotate(0 70.40000915527344 64)"><path d="M62.15 -0.35 C72.01 -2.51, 84.41 0.58, 93.7 3.47 C102.99 6.36, 110.54 10.5, 117.9 16.99 C125.26 23.47, 133.98 33.83, 137.84 42.36 C141.7 50.9, 142.17 59.51, 141.05 68.2 C139.92 76.89, 136.48 86.56, 131.09 94.5 C125.71 102.44, 117.5 110.51, 108.72 115.86 C99.93 121.2, 88.43 125.29, 78.37 126.57 C68.31 127.85, 57.98 126.19, 48.34 123.54 C38.7 120.89, 27.55 117.11, 20.51 110.68 C13.46 104.25, 9.59 93.43, 6.08 84.95 C2.57 76.47, -1.28 68.9, -0.54 59.81 C0.2 50.71, 5.2 38.27, 10.51 30.35 C15.82 22.43, 20.68 17.63, 31.31 12.29 C41.93 6.96, 65.17 -0.31, 74.26 -1.65 C83.35 -2.99, 86.03 2.91, 85.85 4.24 M75.13 0.9 C85.27 0.69, 99.45 6.35, 108.79 10.63 C118.13 14.91, 125.57 19.64, 131.16 26.56 C136.75 33.48, 141.23 42.58, 142.33 52.14 C143.42 61.71, 141.33 74.62, 137.73 83.94 C134.12 93.27, 128.08 101.46, 120.7 108.11 C113.32 114.77, 103.15 120.58, 93.46 123.9 C83.77 127.21, 72.3 128.71, 62.55 128 C52.81 127.28, 43.56 123.95, 34.96 119.61 C26.36 115.28, 17.11 109.51, 10.95 101.99 C4.79 94.47, -0.84 83.95, -1.99 74.49 C-3.14 65.03, 0.04 53.91, 4.04 45.24 C8.04 36.57, 14.66 29.55, 22.02 22.48 C29.38 15.42, 39.57 6.79, 48.2 2.85 C56.84 -1.08, 69.48 -1.04, 73.83 -1.13 C78.18 -1.23, 74.26 0.52, 74.3 2.27" stroke="#1971c2" stroke-width="2" fill="none"></path></g><g transform="translate(40.400115966796875 85.19999694824219) rotate(0 36.35675811767578 39.81823610775524)"><text x="0" y="0" font-family="Virgil, Segoe UI Emoji" font-size="31.854588886204183px" fill="#1e1e1e" text-anchor="start" style="white-space: pre;" direction="ltr" dominant-baseline="text-before-edge">Auth</text><text x="0" y="39.818236107755226" font-family="Virgil, Segoe UI Emoji" font-size="31.854588886204183px" fill="#1e1e1e" text-anchor="start" style="white-space: pre;" direction="ltr" dominant-baseline="text-before-edge"></text></g><g transform="translate(50.000030517578125 10) rotate(0 32.559974670410156 12.5)"><text x="0" y="0" font-family="Virgil, Segoe UI Emoji" font-size="20px" fill="#e03131" text-anchor="start" style="white-space: pre;" direction="ltr" dominant-baseline="text-before-edge">RS256</text></g><g transform="translate(404.4001159667969 93.19999694824219) rotate(0 21.839988708496094 12.5)"><text x="0" y="0" font-family="Virgil, Segoe UI Emoji" font-size="20px" fill="#1971c2" text-anchor="start" style="white-space: pre;" direction="ltr" dominant-baseline="text-before-edge">JWT</text></g><g stroke-linecap="round"><g transform="translate(159.60006713867188 110.80000305175781) rotate(0 120 -2.399993896484375)"><path d="M-1.58 -1.08 C38.09 -2.38, 200.13 -5.39, 240.32 -6.18 M2.76 -4.14 C41.88 -5.22, 199.13 -3.44, 238.26 -3.29" stroke="#1971c2" stroke-width="2" fill="none"></path></g><g transform="translate(159.60006713867188 110.80000305175781) rotate(0 120 -2.399993896484375)"><path d="M213.93 5.31 C222.68 1.69, 231.95 0.33, 237.44 -4.91 M214.75 4.18 C222.58 2.66, 232.71 -1.62, 238.83 -3.31" stroke="#1971c2" stroke-width="2" fill="none"></path></g><g transform="translate(159.60006713867188 110.80000305175781) rotate(0 120 -2.399993896484375)"><path d="M214.06 -11.79 C222.85 -8.87, 232.08 -3.7, 237.44 -4.91 M214.87 -12.92 C222.61 -8.25, 232.69 -6.34, 238.83 -3.31" stroke="#1971c2" stroke-width="2" fill="none"></path></g></g><mask></mask><g stroke-linecap="round" transform="translate(14.000091552734375 298.7999725341797) rotate(0 76.39999389648438 65.20001220703125)"><path d="M57.04 1.77 C67.09 -0.78, 83.59 0.88, 94.49 2.64 C105.39 4.41, 114.24 6.53, 122.46 12.33 C130.68 18.14, 138.6 28.68, 143.8 37.47 C149 46.26, 153.08 56.07, 153.63 65.06 C154.18 74.05, 151.93 82.7, 147.1 91.41 C142.27 100.11, 133.39 111.01, 124.64 117.3 C115.89 123.6, 105.14 127.05, 94.6 129.19 C84.06 131.32, 72.63 132.26, 61.4 130.11 C50.17 127.97, 36.19 122.12, 27.23 116.3 C18.27 110.49, 11.96 103.75, 7.65 95.23 C3.35 86.71, 1.6 74.98, 1.38 65.19 C1.16 55.4, 1.51 44.95, 6.33 36.48 C11.14 28, 13.08 19.73, 30.26 14.34 C47.43 8.94, 90.56 0.55, 109.39 4.1 C128.22 7.66, 143.79 34.05, 143.24 35.66 M114.46 11.27 C123.95 14.83, 132.32 20.7, 138.85 27.97 C145.38 35.23, 152.38 45.33, 153.66 54.84 C154.93 64.36, 149.74 75.58, 146.5 85.06 C143.26 94.55, 141.49 105.17, 134.2 111.74 C126.92 118.32, 113.5 120.99, 102.79 124.5 C92.07 128.02, 81.07 133.57, 69.92 132.85 C58.76 132.14, 44.96 125.27, 35.86 120.23 C26.75 115.18, 21.24 110.05, 15.26 102.58 C9.29 95.11, 2.01 84.6, 0.01 75.42 C-1.98 66.24, -0.58 56.21, 3.3 47.48 C7.17 38.74, 16.11 30.08, 23.25 23.02 C30.39 15.97, 36.17 8.62, 46.15 5.15 C56.14 1.68, 71.77 1.8, 83.17 2.19 C94.57 2.59, 109.51 5.87, 114.57 7.5 C119.63 9.13, 113.69 11.06, 113.51 11.99" stroke="#2f9e44" stroke-width="2" fill="none"></path></g><g transform="translate(30.000091552734375 349.99998474121094) rotate(0 60.019935607910156 25)"><text x="0" y="0" font-family="Virgil, Segoe UI Emoji" font-size="20px" fill="#2f9e44" text-anchor="start" style="white-space: pre;" direction="ltr" dominant-baseline="text-before-edge">Notificaçoes</text><text x="0" y="25" font-family="Virgil, Segoe UI Emoji" font-size="20px" fill="#2f9e44" text-anchor="start" style="white-space: pre;" direction="ltr" dominant-baseline="text-before-edge"></text></g><g transform="translate(229.20010375976562 223.59994506835938) rotate(0 34.439964294433594 25)"><text x="0" y="0" font-family="Virgil, Segoe UI Emoji" font-size="20px" fill="#e03131" text-anchor="start" style="white-space: pre;" direction="ltr" dominant-baseline="text-before-edge">private</text><text x="0" y="25" font-family="Virgil, Segoe UI Emoji" font-size="20px" fill="#e03131" text-anchor="start" style="white-space: pre;" direction="ltr" dominant-baseline="text-before-edge">public</text></g><g stroke-linecap="round"><g transform="translate(301.3475926055743 217.27392998247103) rotate(0 49.01965157417425 -46.952987082278014)"><path d="M1.41 0.16 C17.37 -15.7, 79.71 -78.89, 95.38 -94.16 M-1.27 -2.22 C15.55 -17.71, 83.31 -75.09, 100.34 -90.67" stroke="#e03131" stroke-width="2" fill="none"></path></g><g transform="translate(301.3475926055743 217.27392998247103) rotate(0 49.01965157417425 -46.952987082278014)"><path d="M88.43 -70.65 C91.51 -76.95, 96.87 -80.68, 100.46 -90 M88.63 -67.8 C93.61 -76.85, 98.28 -85.07, 99.62 -91.16" stroke="#e03131" stroke-width="2" fill="none"></path></g><g transform="translate(301.3475926055743 217.27392998247103) rotate(0 49.01965157417425 -46.952987082278014)"><path d="M77.16 -83.51 C83.52 -86.17, 92.12 -86.21, 100.46 -90 M77.35 -80.66 C86.75 -84.73, 95.77 -88.01, 99.62 -91.16" stroke="#e03131" stroke-width="2" fill="none"></path></g></g><mask></mask><g stroke-linecap="round"><g transform="translate(158.94645839245243 328.41244647873214) rotate(0 30.221907134590595 -24.310796157477682)"><path d="M-2.13 0.61 C7.56 -7.99, 48.05 -42.07, 58.53 -50.54 M1.92 -1.53 C12.46 -9.91, 54.35 -40.21, 63.89 -47.95" stroke="#2f9e44" stroke-width="2" fill="none"></path></g><g transform="translate(158.94645839245243 328.41244647873214) rotate(0 30.221907134590595 -24.310796157477682)"><path d="M50.79 -28.29 C53.16 -33.19, 57.64 -40.82, 64.91 -49.15 M50.99 -27.39 C56.46 -34.87, 59.73 -42.8, 64.2 -47.95" stroke="#2f9e44" stroke-width="2" fill="none"></path></g><g transform="translate(158.94645839245243 328.41244647873214) rotate(0 30.221907134590595 -24.310796157477682)"><path d="M40.44 -41.91 C46.11 -42.45, 53.83 -45.81, 64.91 -49.15 M40.64 -41.01 C49.88 -43.36, 57 -46.21, 64.2 -47.95" stroke="#2f9e44" stroke-width="2" fill="none"></path></g></g><mask></mask><g stroke-linecap="round"><g transform="translate(224.51979493683086 222.53477271863943) rotate(0 -37.002293482654125 -31.77572204593534)"><path d="M0.41 0.85 C-11.95 -9.42, -63.44 -52.53, -75.78 -63.25 M-2.81 -1.16 C-14.12 -10.77, -58.27 -49.59, -70.34 -59.45" stroke="#2f9e44" stroke-width="2" fill="none"></path></g><g transform="translate(224.51979493683086 222.53477271863943) rotate(0 -37.002293482654125 -31.77572204593534)"><path d="M-46.3 -52 C-52.32 -52.53, -58.17 -54.89, -71.01 -60.46 M-47.11 -51.13 C-53.39 -54.15, -60.22 -56.21, -70.31 -59.35" stroke="#2f9e44" stroke-width="2" fill="none"></path></g><g transform="translate(224.51979493683086 222.53477271863943) rotate(0 -37.002293482654125 -31.77572204593534)"><path d="M-57.38 -38.98 C-60.64 -42.68, -63.8 -48.2, -71.01 -60.46 M-58.19 -38.11 C-61.03 -45.07, -64.48 -51.08, -70.31 -59.35" stroke="#2f9e44" stroke-width="2" fill="none"></path></g></g><mask></mask></svg>